<?xml version="1.0" encoding="utf-8"?>
<!-- Generator: Adobe Illustrator 28.4.1, SVG Export Plug-In . SVG Version: 6.00 Build 0)  -->
<svg version="1.0" id="Layer_1" xmlns="http://www.w3.org/2000/svg" xmlns:xlink="http://www.w3.org/1999/xlink" x="0px" y="0px"
	 viewBox="0 0 50 50" style="enable-background:new 0 0 50 50;" xml:space="preserve">
<g>
	<path d="M13.12,20.39c0.02-0.34,0.03-0.69,0.08-1.03c0.07-0.5,0.15-0.99,0.27-1.48c0.14-0.56,0.32-1.11,0.55-1.64
		c0.38-0.91,0.88-1.75,1.48-2.53c0.54-0.71,1.17-1.34,1.85-1.91c0.53-0.44,1.11-0.83,1.71-1.16c0.49-0.26,0.98-0.51,1.51-0.69
		c0.17-0.06,0.33-0.13,0.5-0.18c0.3-0.09,0.59-0.18,0.9-0.24c0.44-0.09,0.88-0.19,1.32-0.23c0.65-0.07,1.3-0.1,1.95-0.05
		c0.11,0.01,0.21,0.01,0.32,0.02c0.27,0.03,0.53,0.06,0.8,0.1c0.14,0.02,0.28,0.04,0.42,0.07c0.31,0.07,0.62,0.13,0.92,0.22
		c0.43,0.13,0.86,0.27,1.28,0.44c0.59,0.24,1.16,0.54,1.7,0.89c0.53,0.34,1.04,0.72,1.52,1.15c0.41,0.36,0.79,0.76,1.14,1.18
		c0.36,0.44,0.69,0.9,0.99,1.38c0.3,0.49,0.56,1,0.79,1.53c0.22,0.53,0.4,1.07,0.55,1.63c0.13,0.49,0.22,0.98,0.27,1.48
		c0.1,0.87,0.12,1.74-0.02,2.61c-0.09,0.57-0.22,1.14-0.37,1.69c-0.3,1.08-0.75,2.09-1.3,3.06c-0.43,0.75-0.91,1.46-1.39,2.18
		c-1.59,2.41-3.17,4.81-4.76,7.22c-0.71,1.08-1.42,2.15-2.13,3.23c-0.15,0.22-0.32,0.43-0.54,0.59c-0.42,0.29-0.87,0.36-1.36,0.17
		c-0.36-0.14-0.61-0.4-0.81-0.71c-0.42-0.63-0.84-1.26-1.25-1.89c-1.18-1.8-2.37-3.59-3.55-5.39c-0.99-1.5-1.99-3-2.98-4.51
		c-0.53-0.82-1-1.67-1.37-2.58c-0.15-0.37-0.28-0.75-0.4-1.13c-0.11-0.34-0.21-0.69-0.28-1.04C13.21,22.04,13.09,21.23,13.12,20.39z
		 M34.66,20.42c-0.03-0.35-0.07-0.78-0.12-1.22c-0.02-0.18-0.04-0.35-0.08-0.53c-0.11-0.47-0.23-0.94-0.39-1.39
		c-0.18-0.49-0.39-0.97-0.64-1.43c-0.39-0.7-0.84-1.35-1.38-1.94c-0.55-0.61-1.17-1.15-1.85-1.6c-0.63-0.42-1.29-0.78-2-1.05
		c-0.49-0.19-0.99-0.34-1.5-0.45c-0.5-0.11-1-0.19-1.51-0.2c-0.23,0-0.47-0.05-0.7-0.03c-0.42,0.03-0.84,0.03-1.26,0.09
		c-0.54,0.08-1.07,0.19-1.59,0.34c-0.46,0.14-0.9,0.31-1.33,0.51c-0.77,0.36-1.48,0.8-2.13,1.34c-0.6,0.5-1.15,1.06-1.62,1.68
		c-0.58,0.76-1.05,1.59-1.39,2.49c-0.09,0.24-0.19,0.48-0.26,0.73c-0.11,0.41-0.23,0.81-0.28,1.23c-0.04,0.31-0.11,0.61-0.11,0.92
		c0,0.1-0.01,0.2-0.02,0.3c-0.06,0.61,0.01,1.21,0.11,1.8c0.09,0.48,0.21,0.95,0.35,1.42c0.14,0.49,0.31,0.97,0.53,1.44
		c0.35,0.72,0.73,1.43,1.17,2.1c0.43,0.67,0.87,1.32,1.31,1.98c1.32,2,2.64,4.01,3.96,6.01c0.8,1.21,1.6,2.42,2.4,3.63
		c0.05,0.07,0.1,0.14,0.15,0.21c0.06,0.06,0.11,0.07,0.17,0c0.06-0.06,0.1-0.13,0.15-0.19c0.57-0.86,1.13-1.72,1.7-2.58
		c1.67-2.52,3.33-5.05,5-7.57c0.43-0.65,0.86-1.29,1.26-1.96c0.51-0.83,0.98-1.69,1.28-2.63c0.12-0.38,0.24-0.76,0.34-1.15
		c0.08-0.34,0.14-0.69,0.2-1.03C34.64,21.31,34.66,20.91,34.66,20.42z"/>
	<path d="M24.55,26.73c-3.37,0-6.06-2.77-6.04-6.08c0.02-3.36,2.75-6.05,6.08-6.03c3.38,0.02,6.04,2.77,6.03,6.08
		C30.6,24.06,27.86,26.74,24.55,26.73z M24.56,15.96c-2.61,0.02-4.71,2.09-4.71,4.71c0,2.63,2.12,4.71,4.71,4.71
		c2.59,0,4.71-2.08,4.71-4.71C29.27,18.05,27.17,15.99,24.56,15.96z"/>
</g>
</svg>
