<?xml version="1.0" encoding="utf-8"?>
<!-- Generator: Adobe Illustrator 28.4.1, SVG Export Plug-In . SVG Version: 6.00 Build 0)  -->
<svg version="1.0" id="Layer_1" xmlns="http://www.w3.org/2000/svg" xmlns:xlink="http://www.w3.org/1999/xlink" x="0px" y="0px"
	 viewBox="0 0 50 50" style="enable-background:new 0 0 50 50;" xml:space="preserve">
<g>
	<path d="M25.12,13.5c4.1,0,8.19,0,12.29,0c0.29,0,0.57,0.01,0.85,0.08c0.29,0.07,0.56,0.18,0.82,0.32c0.31,0.18,0.58,0.4,0.81,0.67
		c0.16,0.19,0.31,0.39,0.4,0.62c0.09,0.23,0.2,0.46,0.25,0.7c0.06,0.26,0.08,0.53,0.08,0.8c0,5.03,0,10.06,0,15.1
		c0,0.15-0.01,0.3-0.03,0.45c-0.03,0.2-0.05,0.4-0.11,0.59c-0.11,0.36-0.28,0.68-0.51,0.98c-0.24,0.31-0.53,0.56-0.86,0.76
		c-0.24,0.14-0.5,0.25-0.77,0.32C37.99,34.98,37.62,35,37.25,35c-8.15,0-16.3,0-24.45,0c-0.25,0-0.51-0.02-0.76-0.07
		c-0.25-0.05-0.49-0.14-0.72-0.25c-0.31-0.15-0.58-0.35-0.83-0.59c-0.28-0.28-0.49-0.6-0.65-0.96c-0.18-0.42-0.25-0.85-0.26-1.3
		c0-5.06,0-10.11,0-15.17c0-0.24,0.02-0.49,0.07-0.73c0.05-0.25,0.14-0.49,0.25-0.72c0.2-0.41,0.47-0.76,0.82-1.03
		c0.2-0.16,0.42-0.29,0.65-0.4c0.44-0.22,0.92-0.29,1.41-0.29C16.91,13.5,21.01,13.5,25.12,13.5z M38.64,33.5
		c-0.04-0.05-0.05-0.09-0.08-0.12c-0.41-0.47-0.83-0.95-1.24-1.42c-0.41-0.47-0.82-0.93-1.23-1.4c-0.44-0.51-0.89-1.02-1.33-1.52
		c-0.41-0.47-0.82-0.93-1.23-1.4c-0.45-0.51-0.9-1.02-1.34-1.54c-0.41-0.47-0.82-0.93-1.23-1.4c-0.31-0.35-0.61-0.69-0.91-1.04
		c-0.06-0.06-0.1-0.06-0.16,0c-0.16,0.14-0.31,0.28-0.47,0.41c-0.62,0.54-1.24,1.09-1.85,1.63c-0.68,0.6-1.35,1.2-2.03,1.8
		c-0.23,0.21-0.53,0.24-0.79,0.03c-0.16-0.13-0.31-0.27-0.47-0.4c-0.49-0.43-0.98-0.87-1.47-1.3c-0.53-0.47-1.07-0.94-1.6-1.41
		c-0.28-0.25-0.57-0.49-0.84-0.75c-0.07-0.06-0.11-0.04-0.15,0.01c-0.07,0.08-0.14,0.16-0.22,0.24c-0.44,0.51-0.88,1.01-1.32,1.52
		c-0.39,0.44-0.78,0.88-1.17,1.33c-0.44,0.5-0.88,1.01-1.33,1.52c-0.43,0.49-0.87,0.98-1.3,1.48c-0.59,0.67-1.17,1.34-1.76,2.01
		c-0.47,0.54-0.95,1.08-1.42,1.61c-0.08,0.09-0.08,0.12,0.03,0.18c0.21,0.12,0.44,0.21,0.69,0.23c0.13,0.01,0.26,0.01,0.39,0.01
		c8.2,0,16.4,0,24.6,0c0.25,0,0.51,0.01,0.75-0.09C38.31,33.66,38.47,33.58,38.64,33.5z M25.12,14.67c-4.13,0-8.27,0-12.4,0
		c-0.18,0-0.36,0.03-0.53,0.06c-0.03,0-0.07,0.03-0.09,0.06c-0.01,0.01,0.02,0.06,0.05,0.08c0.65,0.57,1.3,1.14,1.95,1.72
		c0.41,0.36,0.81,0.72,1.22,1.08c0.67,0.59,1.34,1.18,2.01,1.77c0.68,0.6,1.36,1.21,2.05,1.82c0.69,0.61,1.39,1.22,2.08,1.83
		c0.59,0.52,1.18,1.04,1.76,1.56c0.6,0.53,1.19,1.06,1.79,1.58c0.09,0.08,0.12,0.08,0.21,0c0.43-0.38,0.86-0.76,1.29-1.14
		c0.66-0.58,1.31-1.16,1.97-1.74c0.72-0.64,1.45-1.27,2.17-1.91c0.5-0.44,0.99-0.88,1.49-1.32c0.49-0.43,0.98-0.87,1.48-1.3
		c0.36-0.32,0.72-0.64,1.08-0.96c0.51-0.45,1.02-0.9,1.53-1.35c0.34-0.3,0.68-0.6,1.01-0.89c0.29-0.25,0.57-0.51,0.86-0.76
		c0.05-0.05,0.05-0.09-0.02-0.12c-0.02-0.01-0.04-0.02-0.06-0.02c-0.18-0.02-0.35-0.05-0.53-0.05
		C33.37,14.67,29.25,14.67,25.12,14.67z M10.88,32.53c0.03-0.03,0.05-0.04,0.06-0.06c0.41-0.47,0.82-0.93,1.23-1.4
		c0.42-0.47,0.84-0.95,1.25-1.42c0.44-0.5,0.88-1.01,1.32-1.51c0.46-0.52,0.92-1.04,1.38-1.56c0.56-0.64,1.12-1.28,1.69-1.93
		c0.5-0.57,1.01-1.14,1.51-1.71c0.07-0.08,0.07-0.12-0.01-0.19c-0.57-0.5-1.14-1.01-1.71-1.51c-0.53-0.47-1.06-0.94-1.59-1.41
		c-0.51-0.45-1.01-0.89-1.52-1.34c-0.48-0.43-0.96-0.85-1.45-1.28c-0.53-0.47-1.07-0.94-1.61-1.41c-0.11-0.09-0.21-0.19-0.32-0.28
		c-0.14,0.12-0.18,0.28-0.24,0.43c-0.09,0.22-0.09,0.45-0.09,0.69c0,5.07,0,10.14,0,15.21c0,0.14,0,0.28,0.02,0.41
		C10.81,32.35,10.85,32.43,10.88,32.53z M39.45,24.25c0-2.53,0-5.05,0-7.58c0-0.37-0.06-0.71-0.24-1.03
		c-0.06-0.1-0.1-0.11-0.19-0.04c-0.47,0.42-0.94,0.83-1.41,1.25c-0.51,0.45-1.01,0.89-1.52,1.34c-0.35,0.31-0.7,0.62-1.05,0.93
		c-0.51,0.45-1.01,0.89-1.52,1.34c-0.47,0.41-0.93,0.82-1.39,1.23c-0.4,0.35-0.79,0.7-1.19,1.05c-0.07,0.06-0.06,0.1-0.01,0.16
		c0.36,0.41,0.73,0.82,1.09,1.24c0.58,0.67,1.17,1.33,1.75,2c0.53,0.6,1.06,1.2,1.58,1.8c0.45,0.52,0.91,1.03,1.36,1.54
		c0.44,0.5,0.88,1.01,1.32,1.52c0.4,0.45,0.79,0.9,1.19,1.35c0.03,0.04,0.08,0.07,0.12,0.1c0.03-0.05,0.06-0.11,0.08-0.16
		c0.01-0.04,0.01-0.09,0.02-0.14c0.01-0.13,0.01-0.26,0.01-0.39C39.45,29.26,39.45,26.76,39.45,24.25z"/>
</g>
</svg>
