<?xml version="1.0" encoding="utf-8"?>
<!-- Generator: Adobe Illustrator 28.4.1, SVG Export Plug-In . SVG Version: 6.00 Build 0)  -->
<svg version="1.0" id="Layer_1" xmlns="http://www.w3.org/2000/svg" xmlns:xlink="http://www.w3.org/1999/xlink" x="0px" y="0px"
	 viewBox="0 0 50 50" style="enable-background:new 0 0 50 50;" xml:space="preserve">
<path d="M12.49,17.61c-0.01-0.5,0.04-0.96,0.16-1.41c0.17-0.64,0.47-1.23,0.93-1.72c0.47-0.5,0.96-0.98,1.44-1.46
	c0.23-0.23,0.45-0.46,0.68-0.68c0.21-0.2,0.42-0.4,0.66-0.57c0.33-0.24,0.7-0.41,1.11-0.48c0.26-0.05,0.52-0.05,0.77-0.03
	c0.38,0.04,0.74,0.16,1.06,0.38c0.24,0.16,0.47,0.34,0.68,0.54c1.1,1.09,2.2,2.19,3.29,3.29c0.29,0.29,0.56,0.61,0.74,1
	c0.2,0.43,0.29,0.87,0.24,1.34c-0.06,0.52-0.27,0.99-0.6,1.4c-0.36,0.45-0.78,0.84-1.18,1.24c-0.35,0.35-0.7,0.69-1.06,1.03
	c-0.11,0.11-0.11,0.11-0.05,0.25c0.4,0.89,0.94,1.69,1.54,2.46c0.71,0.9,1.48,1.74,2.32,2.53c0.89,0.84,1.84,1.6,2.88,2.25
	c0.37,0.23,0.76,0.41,1.14,0.62c0.08,0.04,0.12,0,0.17-0.05c0.39-0.4,0.79-0.79,1.18-1.18c0.36-0.36,0.71-0.73,1.11-1.05
	c0.29-0.23,0.61-0.4,0.97-0.51c0.38-0.11,0.78-0.13,1.17-0.05c0.4,0.08,0.77,0.24,1.09,0.5c0.2,0.16,0.39,0.34,0.57,0.52
	c1.06,1.06,2.12,2.12,3.19,3.18c0.29,0.29,0.54,0.61,0.72,0.98c0.23,0.49,0.31,0.99,0.22,1.53c-0.09,0.49-0.29,0.91-0.6,1.3
	c-0.34,0.43-0.76,0.79-1.14,1.19c-0.33,0.34-0.67,0.69-0.99,1.03c-0.34,0.36-0.71,0.69-1.15,0.94c-0.35,0.2-0.71,0.34-1.1,0.44
	c-0.55,0.14-1.11,0.17-1.68,0.14c-0.34-0.02-0.68-0.09-1.02-0.13c-0.38-0.05-0.76-0.14-1.13-0.24c-0.35-0.09-0.7-0.21-1.05-0.33
	c-0.71-0.24-1.4-0.54-2.07-0.87c-0.74-0.36-1.46-0.75-2.17-1.16c-0.99-0.59-1.95-1.23-2.86-1.93c-0.77-0.59-1.51-1.22-2.22-1.89
	c-0.72-0.67-1.39-1.39-2.04-2.13c-0.68-0.78-1.32-1.59-1.92-2.42c-0.69-0.95-1.31-1.95-1.87-2.98c-0.33-0.62-0.64-1.25-0.91-1.9
	c-0.27-0.65-0.53-1.32-0.73-2c-0.14-0.48-0.26-0.96-0.34-1.44C12.54,18.58,12.48,18.08,12.49,17.61z M13.88,17.61
	c-0.02,0.79,0.14,1.54,0.35,2.29c0.13,0.45,0.29,0.89,0.45,1.33c0.21,0.58,0.46,1.14,0.73,1.7c0.52,1.07,1.11,2.09,1.78,3.06
	c0.71,1.03,1.46,2.02,2.29,2.96c0.62,0.7,1.26,1.38,1.94,2.02c1.1,1.04,2.28,1.97,3.54,2.82c0.64,0.43,1.29,0.83,1.97,1.2
	c0.62,0.34,1.25,0.66,1.9,0.95c0.53,0.23,1.06,0.45,1.6,0.63c0.5,0.17,1.02,0.31,1.54,0.4c0.45,0.08,0.9,0.14,1.36,0.16
	c0.59,0.01,1.16-0.09,1.68-0.38c0.33-0.18,0.61-0.43,0.87-0.71c0.27-0.29,0.54-0.58,0.82-0.86c0.33-0.33,0.66-0.66,0.99-0.99
	c0.16-0.16,0.3-0.33,0.41-0.53c0.23-0.42,0.23-0.83-0.01-1.25c-0.1-0.18-0.24-0.33-0.38-0.48c-1.11-1.11-2.21-2.21-3.32-3.31
	c-0.11-0.11-0.24-0.22-0.37-0.31c-0.34-0.23-0.71-0.27-1.1-0.12c-0.26,0.1-0.47,0.29-0.67,0.48c-0.67,0.67-1.34,1.34-2.01,2.01
	c-0.08,0.08-0.17,0.16-0.27,0.22c-0.31,0.2-0.65,0.26-1,0.1c-0.22-0.1-0.44-0.22-0.66-0.33c-0.32-0.17-0.64-0.33-0.94-0.52
	c-1.01-0.63-1.95-1.36-2.83-2.17c-1.04-0.96-2.01-2-2.87-3.13c-0.57-0.75-1.09-1.53-1.49-2.39c-0.1-0.21-0.2-0.42-0.27-0.64
	c-0.08-0.26-0.08-0.52,0.04-0.77c0.08-0.17,0.2-0.32,0.34-0.44c0.68-0.62,1.32-1.28,1.97-1.93c0.15-0.16,0.3-0.32,0.41-0.51
	c0.24-0.41,0.24-0.82,0.01-1.23c-0.11-0.19-0.25-0.35-0.4-0.5c-1.08-1.08-2.15-2.16-3.23-3.23c-0.1-0.1-0.2-0.19-0.31-0.28
	c-0.43-0.33-0.92-0.43-1.46-0.12c-0.18,0.1-0.33,0.23-0.47,0.37c-0.63,0.62-1.25,1.25-1.88,1.88c-0.27,0.27-0.51,0.56-0.7,0.9
	c-0.11,0.2-0.19,0.42-0.25,0.63C13.91,16.93,13.86,17.27,13.88,17.61z"/>
</svg>
