<?xml version="1.0" encoding="UTF-8"?>
<svg id="Layer_1" data-name="Layer 1" xmlns="http://www.w3.org/2000/svg" viewBox="0 0 240 165">
  <defs>
    <style>
      .cls-1 {
        fill: #fff;
        stroke-width: 0px;
      }
    </style>
  </defs>
  <g>
    <path class="cls-1" d="M42.19,94.81c-.4-.4-.48-.8-.24-1.2l.4-.88c.24-.72.4-1.28.4-1.84,0-.24-.08-.64-.16-1.04-1.28-4.87-3.27-12.45-6.07-22.75-2.79-10.3-5.03-18.84-6.87-25.71-1.84-6.87-2.87-10.54-2.95-11.02-.08-.08-.16-.16-.24-.4l-1.52-2.4c-.16-.24-.24-.48-.24-.8,0-.72.32-1.04,1.04-1.04h8.14c.4,0,.88.16,1.28.56.4.4.56.88.48,1.28l-.24,2.4c0,.24,0,.32.08.4.08.24,2.16,8.14,6.39,23.87,4.23,15.73,6.31,23.79,6.39,24.03.08.24.32.4.64.4s.56-.16.64-.4l7.5-28.18c0-.24,0-.4-.08-.48l-.88-2.4c-.08-.08-.08-.24-.08-.4,0-.4.16-.72.4-.96.24-.24.56-.4.96-.4h7.34c.48,0,.88.16,1.12.56s.32.8.16,1.2l-.88,2.4v.24c-.08.08-.08.16-.08.24.96,3.51,2.08,7.74,3.43,12.61,1.28,4.87,2.32,8.7,3.03,11.34.72,2.63,1.04,4.07,1.12,4.23.08.24.32.4.64.4.24,0,.48-.16.56-.4l12.85-47.9v-.4l-.24-2.4c-.08-.4.16-.88.56-1.28.4-.4.8-.56,1.28-.56h8.06c.72,0,1.04.32,1.04,1.04,0,.32-.08.56-.24.8l-1.52,2.4c-.08.24-.16.32-.16.4-1.04,3.75-6.39,23.55-15.97,59.48-.08.4-.16.8-.16,1.04,0,.56.16,1.12.4,1.84l.4.88c.08.08.08.24.08.48,0,.4-.16.72-.48.96-.32.24-.72.4-1.2.4h-9.82c-.56,0-1.04-.24-1.36-.64-.4-.4-.48-.8-.24-1.2l.4-.88c.24-.72.4-1.28.4-1.84,0-.24-.08-.64-.16-1.04l-6.07-22.59c-.08-.32-.24-.48-.64-.48-.24,0-.48.16-.64.48l-5.99,22.59c-.08.24-.16.64-.16,1.2,0,.64.08,1.2.32,1.68l.48.88c.08.08.08.24.08.48,0,.4-.16.72-.48.96-.32.24-.72.4-1.2.4h-9.9c-.56,0-1.04-.24-1.36-.64Z"/>
    <path class="cls-1" d="M103.98,95.37c-.96-.24-1.28-.8-.96-1.76l.88-2.4v-.24l.08-.16v-42.63l-.08-.16v-.24l-.88-2.4c-.08-.08-.08-.24-.08-.48,0-.72.32-1.12,1.04-1.28v-.08h27.62c.4,0,.72.16.96.4.24.24.4.56.4.96v6.39c0,.4-.16.8-.56,1.04-.4.24-.8.32-1.2.16l-2.47-.88c-.08-.08-.24-.08-.48-.08h-14.93c-.4,0-.72.16-.96.4-.24.24-.4.56-.4.96v7.42c0,.32.16.56.4.8s.48.4.8.4h9.82c.24,0,.4,0,.48-.08l2.4-.88c.08-.08.24-.08.48-.08.88,0,1.28.48,1.28,1.36v7.34c0,.48-.16.88-.56,1.12-.4.24-.8.32-1.2.16l-2.4-.88c-.08-.08-.24-.08-.48-.08h-9.82c-.32,0-.56.08-.8.32-.24.24-.4.56-.4.88v15.41c0,.4.16.72.4.96s.56.4.96.4h14.93c.24,0,.4,0,.48-.08l2.47-.88c.08-.08.24-.08.48-.08.88,0,1.28.4,1.28,1.28v6.39c0,.4-.16.72-.4.96-.24.24-.56.4-.96.4h-27.62v-.08Z"/>
    <path class="cls-1" d="M145.66,90.98c-3.51-3.11-5.27-6.79-5.27-11.1v-.24c-.08-.08-.08-.16-.08-.24l-.88-2.4c-.08-.08-.08-.24-.08-.48,0-.4.16-.72.4-.96.24-.24.56-.4.96-.4h7.19c.4,0,.8.16,1.12.56.24.4.32.88.16,1.28-.48,1.36-.72,2.55-.72,3.75,0,2.71,1.36,4.87,4.15,6.39,1.36.8,2.95,1.2,4.71,1.2,3.03,0,5.67-1.2,7.82-3.51,2.16-2.32,3.27-5.35,3.27-8.94,0-1.36-.16-2.63-.48-3.99-.64-2.47-1.92-4.95-3.75-7.42-1.92-2.4-4.23-4.95-6.87-7.66-2.63-2.63-4.63-5.03-5.99-7.11-2.47-3.75-3.67-7.34-3.67-10.94s1.28-6.79,3.75-9.26c2.47-2.4,5.43-3.59,8.7-3.59,3.43,0,6.39,1.28,8.94,3.83,2.32,2.32,3.51,5.03,3.51,8.22l.96,2.79c.08.08.08.24.08.48,0,.4-.08.72-.32.96-.24.24-.56.4-.96.4h-7.27c-.48,0-.88-.16-1.12-.56-.24-.4-.32-.8-.16-1.2.64-1.92.96-3.35.96-4.23,0-.64-.08-1.12-.16-1.36-.24-.72-.8-1.28-1.68-1.84s-1.76-.8-2.71-.8c-1.36,0-2.48.56-3.51,1.6-.88.88-1.28,2.16-1.28,3.67,0,2.08.64,4.23,1.92,6.47.96,1.68,2.64,3.83,4.95,6.39,2.32,2.63,4.47,4.95,6.39,7.03,1.92,2.08,3.67,4.71,5.19,7.82,1.52,3.19,2.32,6.39,2.32,9.66,0,3.83-.96,7.34-2.79,10.62-1.92,3.27-4.39,5.83-7.34,7.5-2.63,1.52-5.43,2.24-8.38,2.24-4.55,0-8.54-1.52-11.98-4.63Z"/>
    <path class="cls-1" d="M193.84,94.81c-.24-.4-.32-.8-.16-1.2l.8-2.4c.08-.08.08-.24.08-.4v-44.31c0-.4-.16-.72-.4-.96-.24-.24-.56-.4-.96-.4h-6.64c-.16,0-.32,0-.4.08l-2.47.88c-.08.08-.24.08-.48.08-.88,0-1.28-.4-1.28-1.28v-6.39c0-.4.16-.72.4-.96.24-.24.56-.4.96-.4h30.65c.4,0,.72.16.96.4.24.24.4.56.4.96v6.39c0,.4-.16.8-.56,1.04-.4.24-.8.32-1.2.16l-2.48-.88c-.08-.08-.24-.08-.4-.08h-6.77c-.4,0-.72.16-.96.4-.24.24-.4.56-.4.96v44.31l.08.16v.24l.88,2.4c.08.08.08.24.08.48,0,.4-.16.72-.4.96-.24.24-.56.4-.96.4h-7.27c-.48,0-.88-.24-1.12-.64Z"/>
  </g>
  <g>
    <path class="cls-1" d="M77.86,138.94c-.12-.19-.15-.38-.08-.58l.38-1.15s.04-.12.04-.23v-29.04c0-.12,0-.15-.04-.19l-.38-1.15s-.04-.11-.04-.23c0-.19.08-.35.19-.46s.27-.19.46-.19h3.69c3.03,0,5.38.84,7.03,2.57,1.65,1.73,2.46,3.8,2.46,6.18,0,2.73-.92,4.92-2.77,6.57-.12.19-.19.35-.19.5,0,.27.12.46.31.58,1.42.88,2.54,2,3.34,3.3.81,1.34,1.23,2.77,1.23,4.3,0,2.65-1.11,4.88-3.38,6.72-2.27,1.88-4.99,2.8-8.18,2.8h-3.53c-.23,0-.42-.12-.54-.31ZM86.46,117.66c.84-1.11,1.27-2.19,1.27-3.26s-.42-2.07-1.31-3.15c-.88-1.04-2.11-1.61-3.69-1.69-.19,0-.35.08-.46.19-.15.12-.23.27-.23.46v8.57c0,.19.08.34.23.46.12.12.27.19.46.19,1.65-.08,2.88-.65,3.73-1.77ZM87.65,133.48c1.34-1.08,2-2.34,2-3.76s-.65-2.69-2-3.8c-1.34-1.08-2.96-1.69-4.88-1.84h-.08c-.19,0-.35.08-.46.19s-.19.27-.19.46v9.95c0,.19.08.38.23.5.12.15.31.23.5.19,1.92-.15,3.53-.77,4.88-1.88Z"/>
    <path class="cls-1" d="M97.06,139.13c-.46-.12-.62-.38-.46-.84l.42-1.15v-.12l.04-.08v-20.51l-.04-.08v-.12l-.42-1.15s-.04-.12-.04-.23c0-.35.15-.54.5-.61v-.04h13.29c.19,0,.35.08.46.19s.19.27.19.46v3.07c0,.19-.08.38-.27.5-.19.12-.38.15-.58.08l-1.19-.42s-.12-.04-.23-.04h-7.18c-.19,0-.35.08-.46.19s-.19.27-.19.46v3.57c0,.15.08.27.19.38s.23.19.38.19h4.72c.12,0,.19,0,.23-.04l1.15-.42s.12-.04.23-.04c.42,0,.61.23.61.65v3.53c0,.23-.08.42-.27.54-.19.12-.38.15-.58.08l-1.15-.42s-.12-.04-.23-.04h-4.72c-.15,0-.27.04-.38.15s-.19.27-.19.42v7.41c0,.19.08.35.19.46s.27.19.46.19h7.18c.12,0,.19,0,.23-.04l1.19-.42s.12-.04.23-.04c.42,0,.61.19.61.61v3.07c0,.19-.08.35-.19.46s-.27.19-.46.19h-13.29v-.04Z"/>
    <path class="cls-1" d="M113.7,138.67c0-.12.04-.27.12-.38l.73-1.15s.08-.12.08-.19l5.38-20.05c.04-.27.08-.42.08-.54,0-.27-.08-.54-.19-.84l-.19-.42s-.04-.12-.04-.23c0-.19.08-.35.23-.46.15-.12.35-.19.58-.19h4.38c.27,0,.5.08.69.27.15.19.19.42.08.61l-.19.42c-.12.31-.19.58-.19.84,0,.12.04.27.08.54l5.38,20.05s.04.08.08.19l.73,1.15c.08.12.12.27.12.38,0,.35-.15.5-.5.5h-3.53c-.19,0-.38-.12-.58-.31s-.31-.38-.27-.58l.12-1.15v-.15c-.27-.88-.54-1.92-.81-3.03-.08-.27-.23-.42-.5-.46l-5.22-1.04h-.12c-.31,0-.54.15-.65.46-.69,2.65-1.04,3.99-1.04,4.03-.04.04-.04.08-.04.19l.12,1.15c.04.19-.04.38-.23.58-.19.19-.42.31-.61.31h-3.53c-.35,0-.5-.15-.5-.5ZM123.87,129.22c.23,0,.42-.08.54-.27.12-.15.15-.34.12-.54l-1.57-5.95c-.04-.12-.12-.19-.31-.19s-.27.08-.31.19l-1.46,5.49v.15c0,.35.15.58.5.65l2.38.46h.12Z"/>
    <path class="cls-1" d="M134.4,138.86c-.12-.19-.15-.38-.08-.58l.42-1.15v-.12l.04-.08v-20.51l-.04-.08v-.12l-.42-1.15s-.04-.12-.04-.23c0-.19.08-.35.19-.46s.27-.19.46-.19h3.53c.19,0,.38.08.54.27.12.19.15.42.08.61l-.15.35,6.49,13.83c.08.12.15.15.27.15.19,0,.27-.08.27-.27v-12.71c0-.08,0-.15-.04-.19l-.38-1.15s-.04-.12-.04-.23c0-.19.08-.35.19-.46s.27-.19.46-.19h3.5c.23,0,.42.08.54.27.12.19.15.42.08.61l-.42,1.15s0,.08-.04.12v20.66s.04.08.04.12l.42,1.15s.04.12.04.23c0,.19-.08.35-.19.46s-.27.19-.46.19h-3.5c-.23,0-.42-.12-.54-.31s-.15-.38-.08-.58l.12-.35-6.49-13.83c-.08-.12-.15-.15-.27-.15-.19,0-.27.08-.27.27v12.71c0,.08,0,.15.04.19l.42,1.15s.04.12.04.19c0,.19-.08.35-.19.46-.12.15-.27.23-.46.23h-3.53c-.23,0-.42-.12-.54-.31Z"/>
    <path class="cls-1" d="M156.41,137.02c-1.69-1.5-2.54-3.26-2.54-5.34v-.12s-.04-.08-.04-.12l-.42-1.15s-.04-.12-.04-.23c0-.19.08-.35.19-.46s.27-.19.46-.19h3.46c.19,0,.38.08.54.27.12.19.15.42.08.61-.23.65-.35,1.23-.35,1.8,0,1.31.65,2.34,2,3.07.65.38,1.42.58,2.27.58,1.46,0,2.73-.58,3.76-1.69,1.04-1.11,1.57-2.57,1.57-4.3,0-.65-.08-1.27-.23-1.92-.31-1.19-.92-2.38-1.8-3.57-.92-1.15-2.04-2.38-3.3-3.69-1.27-1.27-2.23-2.42-2.88-3.42-1.19-1.81-1.77-3.53-1.77-5.26s.61-3.26,1.8-4.46c1.19-1.15,2.61-1.73,4.19-1.73,1.65,0,3.07.61,4.3,1.84,1.11,1.11,1.69,2.42,1.69,3.96l.46,1.34s.04.12.04.23c0,.19-.04.35-.15.46s-.27.19-.46.19h-3.49c-.23,0-.42-.08-.54-.27-.12-.19-.15-.38-.08-.58.31-.92.46-1.61.46-2.04,0-.31-.04-.54-.08-.65-.12-.35-.38-.61-.81-.88-.42-.27-.85-.38-1.31-.38-.65,0-1.19.27-1.69.77-.42.42-.61,1.04-.61,1.77,0,1,.31,2.04.92,3.11.46.81,1.27,1.84,2.38,3.07,1.11,1.27,2.15,2.38,3.07,3.38.92,1,1.77,2.27,2.5,3.76.73,1.54,1.11,3.07,1.11,4.65,0,1.84-.46,3.53-1.34,5.11-.92,1.58-2.11,2.8-3.53,3.61-1.27.73-2.61,1.08-4.03,1.08-2.19,0-4.11-.73-5.76-2.23Z"/>
  </g>
  <path class="cls-1" d="M178.15,120.76c.2-.12.4-.16.6-.08l1.21.4s.12.04.2.04h30.41c.08,0,.16,0,.2-.04l1.21-.4s.12-.04.24-.04c.2,0,.36.08.48.2.12.12.2.28.2.48v3.66c0,.24-.08.44-.28.56-.2.12-.44.16-.64.08l-1.21-.44s-.08,0-.12-.04h-30.57s-.08.04-.12.04l-1.21.44s-.12.04-.24.04c-.2,0-.36-.08-.48-.2-.12-.12-.2-.28-.2-.48v-3.66c0-.24.12-.44.32-.56Z"/>
  <path class="cls-1" d="M32.42,120.76c.2-.12.4-.16.6-.08l1.21.4s.12.04.2.04h30.41c.08,0,.16,0,.2-.04l1.21-.4s.12-.04.24-.04c.2,0,.36.08.48.2.12.12.2.28.2.48v3.66c0,.24-.08.44-.28.56-.2.12-.44.16-.64.08l-1.21-.44s-.08,0-.12-.04h-30.57s-.08.04-.12.04l-1.21.44s-.12.04-.24.04c-.2,0-.36-.08-.48-.2-.12-.12-.2-.28-.2-.48v-3.66c0-.24.12-.44.32-.56Z"/>
  <g>
    <path class="cls-1" d="M179.98,115.76s-.02-.04-.01-.06l.07-.19s0-.01,0-.02v-3.99s0-.01,0-.02h0s-.06-.17-.06-.17c0,0,0-.02,0-.03,0-.03.01-.05.03-.06.02-.02.04-.03.06-.03h.51c.49,0,.88.14,1.15.41.27.28.4.6.4.98,0,.24-.05.45-.16.66s-.27.37-.47.5l.5,1.72.02.03.1.16s.02.04.02.05c0,.05-.02.07-.07.07h-.48s-.06-.02-.08-.04c-.03-.03-.04-.05-.04-.08v-.16s.01-.03,0-.03l-.45-1.54c-.11.03-.24.04-.38.04-.05,0-.07.02-.07.07v1.44s0,.03,0,.03l.06.19v.02s-.02.07-.06.07h-.54s-.04-.01-.05-.03ZM181.33,113.2c.16-.17.25-.37.25-.6s-.08-.44-.25-.61c-.17-.17-.4-.26-.69-.26-.04,0-.06.02-.06.07v1.58s.02.07.06.07c.3,0,.53-.08.7-.25Z"/>
    <path class="cls-1" d="M180.95,117.77c-2.32,0-4.2-1.88-4.2-4.2s1.88-4.2,4.2-4.2,4.2,1.88,4.2,4.2-1.88,4.2-4.2,4.2ZM180.95,109.84c-2.06,0-3.74,1.68-3.74,3.74s1.68,3.74,3.74,3.74,3.74-1.68,3.74-3.74-1.68-3.74-3.74-3.74Z"/>
  </g>
</svg>